{
	"asset":{
		"version":"2.0",
		"generator":"Created using the official Cinema 4D glTF Exporter 1.000x284978"
	},
	"scenes":[{
		"nodes":[0,
		11,
		14,
		20,
		26,
		30]
	}],
	"nodes":[{
		"name":"Speakers",
		"translation":[-161.92776489257813,
		72.69866943359375,
		30.145483016967775],
		"rotation":[1.053671194739536e-8,
		-0.7071067690849304,
		1.053671194739536e-8,
		-0.7071067690849304],
		"scale":[1.0,
		1.0,
		1.0],
		"children":[1,
		6]
	},
	{
		"name":"Connect",
		"translation":[30.14548110961914,
		-72.69866943359375,
		161.92776489257813],
		"rotation":[0.5,
		-0.5,
		0.5,
		0.5],
		"scale":[1.0,
		1.0,
		1.0],
		"children":[2]
	},
	{
		"name":"Lautsprecher.1",
		"children":[3,
		4,
		5]
	},
	{
		"name":"Lautsprecher.1-Lautsprecher-03",
		"mesh":0
	},
	{
		"name":"Lautsprecher.1-Lautsprecher-02",
		"mesh":1
	},
	{
		"name":"Lautsprecher.1-Lautsprecher-01",
		"mesh":2
	},
	{
		"name":"Connect",
		"translation":[30.14548110961914,
		-72.69866943359375,
		161.92776489257813],
		"rotation":[0.5,
		-0.5,
		0.5,
		0.5],
		"scale":[1.0,
		1.0,
		1.0],
		"children":[7]
	},
	{
		"name":"Lautsprecher",
		"children":[8,
		9,
		10]
	},
	{
		"name":"Lautsprecher-Lautsprecher-03",
		"mesh":3
	},
	{
		"name":"Lautsprecher-Lautsprecher-02",
		"mesh":4
	},
	{
		"name":"Lautsprecher-Lautsprecher-01",
		"mesh":5
	},
	{
		"name":"Keyboard",
		"translation":[-115.55281066894531,
		73.79203796386719,
		51.309814453125],
		"rotation":[0.0,
		-0.06899269670248032,
		0.0,
		-0.9976171851158142],
		"scale":[1.0,
		1.0,
		1.0],
		"children":[12,
		13]
	},
	{
		"name":"Cloner.1",
		"translation":[121.51588439941406,
		-73.79203796386719,
		-34.91474151611328],
		"rotation":[0.7054218649864197,
		-0.04878520220518112,
		0.04878520220518112,
		0.7054218649864197],
		"scale":[1.0,
		1.0,
		1.0],
		"mesh":6
	},
	{
		"name":"Cube.3",
		"translation":[-0.02755987085402012,
		-0.4244210720062256,
		4.778691291809082],
		"rotation":[0.0,
		0.0,
		0.6925761699676514,
		0.7213447690010071],
		"scale":[1.0,
		1.0,
		1.0],
		"mesh":7
	},
	{
		"name":"Monitor.1",
		"translation":[-146.49029541015626,
		93.33399200439453,
		80.44546508789063],
		"rotation":[0.0,
		-0.216753751039505,
		0.0,
		-0.9762263298034668],
		"scale":[1.0,
		1.0,
		1.0],
		"children":[15,
		16,
		17]
	},
	{
		"name":"Cube.2",
		"translation":[-3.6416304111480715,
		1.7223644256591797,
		4.789159297943115],
		"rotation":[0.0,
		0.0,
		0.0,
		-1.0],
		"scale":[1.0,
		1.0,
		1.0],
		"mesh":8
	},
	{
		"name":"Cube.1",
		"translation":[1.2959872484207154,
		-19.645404815673829,
		4.789159297943115],
		"rotation":[0.0,
		0.0,
		0.7071067690849304,
		0.7071067690849304],
		"scale":[1.0,
		1.0,
		1.0],
		"mesh":9
	},
	{
		"name":"Cube",
		"translation":[0.8591781258583069,
		17.92304039001465,
		4.275295257568359],
		"rotation":[0.0,
		0.0,
		0.08715574443340302,
		0.9961947202682495],
		"scale":[1.0,
		1.0,
		1.0],
		"children":[18,
		19]
	},
	{
		"name":"Cube-Lautsprecher-01",
		"mesh":10
	},
	{
		"name":"Cube-Light Bright",
		"translation":[0.0,
		0.0,
		0.0],
		"rotation":[0.0,
		0.0,
		0.0,
		-1.0],
		"scale":[1.0,
		1.0,
		1.0],
		"mesh":11
	},
	{
		"name":"Monitor 2",
		"translation":[-157.2761688232422,
		93.33399200439453,
		-7.192953586578369],
		"rotation":[0.0,
		-0.06771761178970337,
		0.0,
		0.9977045059204102],
		"scale":[1.0,
		1.0,
		1.0],
		"children":[21,
		22,
		23]
	},
	{
		"name":"Cube.2",
		"translation":[-1.763951063156128,
		1.7223644256591797,
		4.533090591430664],
		"rotation":[0.0,
		0.0,
		0.0,
		-1.0],
		"scale":[1.0,
		1.0,
		1.0],
		"mesh":12
	},
	{
		"name":"Cube.1",
		"translation":[3.1736667156219484,
		-19.645404815673829,
		4.533090591430664],
		"rotation":[0.0,
		0.0,
		0.7071067690849304,
		0.7071067690849304],
		"scale":[1.0,
		1.0,
		1.0],
		"mesh":13
	},
	{
		"name":"Cube",
		"translation":[2.7368576526641847,
		17.92304039001465,
		4.019226551055908],
		"rotation":[0.0,
		0.0,
		0.08715574443340302,
		0.9961947202682495],
		"scale":[1.0,
		1.0,
		1.0],
		"children":[24,
		25]
	},
	{
		"name":"Cube-Lautsprecher-01",
		"mesh":14
	},
	{
		"name":"Cube-Light Bright",
		"translation":[0.0,
		0.0,
		0.0],
		"rotation":[0.0,
		0.0,
		0.0,
		-1.0],
		"scale":[1.0,
		1.0,
		1.0],
		"mesh":15
	},
	{
		"name":"quarto",
		"translation":[-63.491600036621097,
		85.607666015625,
		63.9295768737793],
		"rotation":[0.0,
		0.0,
		0.0,
		-1.0],
		"scale":[1.0,
		1.0,
		1.0],
		"children":[27,
		28,
		29]
	},
	{
		"name":"parede 1",
		"translation":[63.491600036621097,
		42.8038330078125,
		126.55855560302735],
		"rotation":[0.7071067690849304,
		0.0,
		0.0,
		-0.7071067690849304],
		"scale":[1.0,
		1.0,
		1.0],
		"mesh":16
	},
	{
		"name":"parede 2",
		"translation":[-126.98320007324219,
		42.8038330078125,
		-62.62897872924805],
		"rotation":[0.5,
		0.5,
		0.5,
		-0.5],
		"scale":[1.0,
		1.0,
		1.0],
		"mesh":17
	},
	{
		"name":"chão",
		"translation":[63.491600036621097,
		-85.607666015625,
		-63.9295768737793],
		"rotation":[0.0,
		0.0,
		0.0,
		-1.0],
		"scale":[1.0,
		1.0,
		1.0],
		"mesh":18
	},
	{
		"name":"mesa",
		"translation":[0.0,
		-2.498001805406602e-16,
		5.440092820663267e-15],
		"rotation":[-0.7071067690849304,
		0.0,
		0.0,
		-0.7071067690849304],
		"scale":[1.0,
		1.0,
		1.0],
		"children":[31,
		32]
	},
	{
		"name":"Connect",
		"translation":[-4.903353691101074,
		63.27332305908203,
		3.624573412946714e-15],
		"rotation":[0.0,
		0.0,
		0.7072681784629822,
		0.7069453001022339],
		"scale":[1.0,
		1.0,
		1.0],
		"mesh":19
	},
	{
		"name":"Connect",
		"mesh":20
	}],
	"meshes":[{
		"primitives":[{
			"attributes":{
				"POSITION":1
			},
			"indices":0,
			"material":0
		}],
		"name":"Lautsprecher.1-Lautsprecher-03"
	},
	{
		"primitives":[{
			"attributes":{
				"POSITION":3
			},
			"indices":2,
			"material":1
		}],
		"name":"Lautsprecher.1-Lautsprecher-02"
	},
	{
		"primitives":[{
			"attributes":{
				"POSITION":5
			},
			"indices":4,
			"material":2
		}],
		"name":"Lautsprecher.1-Lautsprecher-01"
	},
	{
		"primitives":[{
			"attributes":{
				"POSITION":7
			},
			"indices":6,
			"material":0
		}],
		"name":"Lautsprecher-Lautsprecher-03"
	},
	{
		"primitives":[{
			"attributes":{
				"POSITION":9
			},
			"indices":8,
			"material":1
		}],
		"name":"Lautsprecher-Lautsprecher-02"
	},
	{
		"primitives":[{
			"attributes":{
				"POSITION":11
			},
			"indices":10,
			"material":2
		}],
		"name":"Lautsprecher-Lautsprecher-01"
	},
	{
		"primitives":[{
			"attributes":{
				"POSITION":13
			},
			"indices":12,
			"material":3
		}],
		"name":"Cloner.1"
	},
	{
		"primitives":[{
			"attributes":{
				"POSITION":15
			},
			"indices":14,
			"material":2
		}],
		"name":"Cube.3"
	},
	{
		"primitives":[{
			"attributes":{
				"POSITION":17
			},
			"indices":16,
			"material":2
		}],
		"name":"Cube.2"
	},
	{
		"primitives":[{
			"attributes":{
				"POSITION":19
			},
			"indices":18,
			"material":2
		}],
		"name":"Cube.1"
	},
	{
		"primitives":[{
			"attributes":{
				"POSITION":21
			},
			"indices":20,
			"material":2
		}],
		"name":"Cube-Lautsprecher-01"
	},
	{
		"primitives":[{
			"attributes":{
				"POSITION":23
			},
			"indices":22,
			"material":4
		}],
		"name":"Cube-Light Bright"
	},
	{
		"primitives":[{
			"attributes":{
				"POSITION":25
			},
			"indices":24,
			"material":2
		}],
		"name":"Cube.2"
	},
	{
		"primitives":[{
			"attributes":{
				"POSITION":27
			},
			"indices":26,
			"material":2
		}],
		"name":"Cube.1"
	},
	{
		"primitives":[{
			"attributes":{
				"POSITION":29
			},
			"indices":28,
			"material":2
		}],
		"name":"Cube-Lautsprecher-01"
	},
	{
		"primitives":[{
			"attributes":{
				"POSITION":31
			},
			"indices":30,
			"material":5
		}],
		"name":"Cube-Light Bright"
	},
	{
		"primitives":[{
			"attributes":{
				"POSITION":33
			},
			"indices":32,
			"material":6
		}],
		"name":"parede 1"
	},
	{
		"primitives":[{
			"attributes":{
				"POSITION":35
			},
			"indices":34,
			"material":6
		}],
		"name":"parede 2"
	},
	{
		"primitives":[{
			"attributes":{
				"POSITION":37
			},
			"indices":36,
			"material":7
		}],
		"name":"chão"
	},
	{
		"primitives":[{
			"attributes":{
				"POSITION":39
			},
			"indices":38,
			"material":8
		}],
		"name":"Connect"
	},
	{
		"primitives":[{
			"attributes":{
				"POSITION":41
			},
			"indices":40,
			"material":8
		}],
		"name":"Connect"
	}],
	"accessors":[{
		"bufferView":0,
		"type":"SCALAR",
		"componentType":5123,
		"max":[7],
		"count":36,
		"byteOffset":0,
		"min":[0]
	},
	{
		"bufferView":1,
		"type":"VEC3",
		"componentType":5126,
		"max":[-158.13412475585938,
		166.5717315673828,
		-74.06438446044922],
		"count":8,
		"byteOffset":0,
		"min":[-158.41001892089845,
		164.36451721191407,
		-74.6161880493164]
	},
	{
		"bufferView":2,
		"type":"SCALAR",
		"componentType":5123,
		"max":[136],
		"count":750,
		"byteOffset":0,
		"min":[0]
	},
	{
		"bufferView":3,
		"type":"VEC3",
		"componentType":5126,
		"max":[-157.30641174316407,
		172.6415557861328,
		-75.71978759765625],
		"count":137,
		"byteOffset":0,
		"min":[-159.5136260986328,
		158.29469299316407,
		-103.08919525146485]
	},
	{
		"bufferView":4,
		"type":"SCALAR",
		"componentType":5123,
		"max":[55],
		"count":324,
		"byteOffset":0,
		"min":[0]
	},
	{
		"bufferView":5,
		"type":"VEC3",
		"componentType":5126,
		"max":[-158.41001892089845,
		172.6967315673828,
		-72.68487548828125],
		"count":56,
		"byteOffset":0,
		"min":[-172.7568817138672,
		158.239501953125,
		-104.19279479980469]
	},
	{
		"bufferView":6,
		"type":"SCALAR",
		"componentType":5123,
		"max":[7],
		"count":36,
		"byteOffset":0,
		"min":[0]
	},
	{
		"bufferView":7,
		"type":"VEC3",
		"componentType":5126,
		"max":[-158.13412475585938,
		-49.34046936035156,
		-74.06438446044922],
		"count":8,
		"byteOffset":0,
		"min":[-158.4100341796875,
		-51.54767990112305,
		-74.6161880493164]
	},
	{
		"bufferView":8,
		"type":"SCALAR",
		"componentType":5123,
		"max":[136],
		"count":750,
		"byteOffset":0,
		"min":[0]
	},
	{
		"bufferView":9,
		"type":"VEC3",
		"componentType":5126,
		"max":[-157.30642700195313,
		-43.2706413269043,
		-75.71978759765625],
		"count":137,
		"byteOffset":0,
		"min":[-159.51364135742188,
		-57.61750411987305,
		-103.08919525146485]
	},
	{
		"bufferView":10,
		"type":"SCALAR",
		"componentType":5123,
		"max":[55],
		"count":324,
		"byteOffset":0,
		"min":[0]
	},
	{
		"bufferView":11,
		"type":"VEC3",
		"componentType":5126,
		"max":[-158.4100341796875,
		-43.21546173095703,
		-72.68487548828125],
		"count":56,
		"byteOffset":0,
		"min":[-172.75689697265626,
		-57.67268753051758,
		-104.19279479980469]
	},
	{
		"bufferView":12,
		"type":"SCALAR",
		"componentType":5123,
		"max":[767],
		"count":3456,
		"byteOffset":0,
		"min":[0]
	},
	{
		"bufferView":13,
		"type":"VEC3",
		"componentType":5126,
		"max":[-103.16416931152344,
		84.30807495117188,
		-72.89087677001953],
		"count":768,
		"byteOffset":0,
		"min":[-126.58953094482422,
		27.838863372802736,
		-75.11761474609375]
	},
	{
		"bufferView":14,
		"type":"SCALAR",
		"componentType":5123,
		"max":[7],
		"count":36,
		"byteOffset":0,
		"min":[0]
	},
	{
		"bufferView":15,
		"type":"VEC3",
		"componentType":5126,
		"max":[1.1408976316452027,
		9.637635231018067,
		29.25773048400879],
		"count":8,
		"byteOffset":0,
		"min":[-1.1408976316452027,
		-9.637635231018067,
		-29.25773048400879]
	},
	{
		"bufferView":16,
		"type":"SCALAR",
		"componentType":5123,
		"max":[7],
		"count":36,
		"byteOffset":0,
		"min":[0]
	},
	{
		"bufferView":17,
		"type":"VEC3",
		"componentType":5126,
		"max":[1.845812439918518,
		20.642253875732423,
		7.527586936950684],
		"count":8,
		"byteOffset":0,
		"min":[-1.845812439918518,
		-20.642253875732423,
		-7.527586936950684]
	},
	{
		"bufferView":18,
		"type":"SCALAR",
		"componentType":5123,
		"max":[7],
		"count":36,
		"byteOffset":0,
		"min":[0]
	},
	{
		"bufferView":19,
		"type":"VEC3",
		"componentType":5126,
		"max":[0.981789767742157,
		14.203251838684082,
		17.708215713500978],
		"count":8,
		"byteOffset":0,
		"min":[-0.981789767742157,
		-14.203251838684082,
		-17.708215713500978]
	},
	{
		"bufferView":20,
		"type":"SCALAR",
		"componentType":5123,
		"max":[15],
		"count":78,
		"byteOffset":0,
		"min":[0]
	},
	{
		"bufferView":21,
		"type":"VEC3",
		"componentType":5126,
		"max":[2.407343626022339,
		28.182147979736329,
		40.867244720458987],
		"count":16,
		"byteOffset":0,
		"min":[-2.407343626022339,
		-28.182147979736329,
		-40.867244720458987]
	},
	{
		"bufferView":22,
		"type":"SCALAR",
		"componentType":5123,
		"max":[3],
		"count":6,
		"byteOffset":0,
		"min":[0]
	},
	{
		"bufferView":23,
		"type":"VEC3",
		"componentType":5126,
		"max":[1.437307357788086,
		26.640838623046876,
		39.079856872558597],
		"count":4,
		"byteOffset":0,
		"min":[1.437307357788086,
		-26.640838623046876,
		-39.079856872558597]
	},
	{
		"bufferView":24,
		"type":"SCALAR",
		"componentType":5123,
		"max":[7],
		"count":36,
		"byteOffset":0,
		"min":[0]
	},
	{
		"bufferView":25,
		"type":"VEC3",
		"componentType":5126,
		"max":[1.845812439918518,
		20.642253875732423,
		7.527586936950684],
		"count":8,
		"byteOffset":0,
		"min":[-1.845812439918518,
		-20.642253875732423,
		-7.527586936950684]
	},
	{
		"bufferView":26,
		"type":"SCALAR",
		"componentType":5123,
		"max":[7],
		"count":36,
		"byteOffset":0,
		"min":[0]
	},
	{
		"bufferView":27,
		"type":"VEC3",
		"componentType":5126,
		"max":[0.981789767742157,
		14.203251838684082,
		17.708215713500978],
		"count":8,
		"byteOffset":0,
		"min":[-0.981789767742157,
		-14.203251838684082,
		-17.708215713500978]
	},
	{
		"bufferView":28,
		"type":"SCALAR",
		"componentType":5123,
		"max":[15],
		"count":78,
		"byteOffset":0,
		"min":[0]
	},
	{
		"bufferView":29,
		"type":"VEC3",
		"componentType":5126,
		"max":[2.407343626022339,
		28.182147979736329,
		40.867244720458987],
		"count":16,
		"byteOffset":0,
		"min":[-2.407343626022339,
		-28.182147979736329,
		-40.867244720458987]
	},
	{
		"bufferView":30,
		"type":"SCALAR",
		"componentType":5123,
		"max":[3],
		"count":6,
		"byteOffset":0,
		"min":[0]
	},
	{
		"bufferView":31,
		"type":"VEC3",
		"componentType":5126,
		"max":[1.437307357788086,
		26.640838623046876,
		39.079856872558597],
		"count":4,
		"byteOffset":0,
		"min":[1.437307357788086,
		-26.640838623046876,
		-39.079856872558597]
	},
	{
		"bufferView":32,
		"type":"SCALAR",
		"componentType":5123,
		"max":[7],
		"count":36,
		"byteOffset":0,
		"min":[0]
	},
	{
		"bufferView":33,
		"type":"VEC3",
		"componentType":5126,
		"max":[199.4044189453125,
		10.404417037963868,
		127.9044189453125],
		"count":8,
		"byteOffset":0,
		"min":[-199.4044189453125,
		-10.404417037963868,
		-127.9044189453125]
	},
	{
		"bufferView":34,
		"type":"SCALAR",
		"componentType":5123,
		"max":[7],
		"count":36,
		"byteOffset":0,
		"min":[0]
	},
	{
		"bufferView":35,
		"type":"VEC3",
		"componentType":5126,
		"max":[199.4044189453125,
		10.404417037963868,
		127.9044189453125],
		"count":8,
		"byteOffset":0,
		"min":[-199.4044189453125,
		-10.404417037963868,
		-127.9044189453125]
	},
	{
		"bufferView":36,
		"type":"SCALAR",
		"componentType":5123,
		"max":[7],
		"count":36,
		"byteOffset":0,
		"min":[0]
	},
	{
		"bufferView":37,
		"type":"VEC3",
		"componentType":5126,
		"max":[201.4044189453125,
		6.404416561126709,
		201.4044189453125],
		"count":8,
		"byteOffset":0,
		"min":[-201.4044189453125,
		-6.404416561126709,
		-201.4044189453125]
	},
	{
		"bufferView":38,
		"type":"SCALAR",
		"componentType":5123,
		"max":[39],
		"count":180,
		"byteOffset":0,
		"min":[0]
	},
	{
		"bufferView":39,
		"type":"VEC3",
		"componentType":5126,
		"max":[111.8615493774414,
		174.94912719726563,
		-6.4484543800354],
		"count":40,
		"byteOffset":0,
		"min":[17.861080169677736,
		-68.39684295654297,
		-72.62159729003906]
	},
	{
		"bufferView":40,
		"type":"SCALAR",
		"componentType":5123,
		"max":[39],
		"count":180,
		"byteOffset":0,
		"min":[0]
	},
	{
		"bufferView":41,
		"type":"VEC3",
		"componentType":5126,
		"max":[-85.41835021972656,
		174.94912719726563,
		-6.4484543800354],
		"count":40,
		"byteOffset":0,
		"min":[-179.41880798339845,
		-68.39684295654297,
		-72.62159729003906]
	}],
	"bufferViews":[{
		"buffer":0,
		"byteOffset":0,
		"byteLength":72,
		"target":34963
	},
	{
		"buffer":0,
		"byteOffset":72,
		"byteLength":96,
		"target":34962
	},
	{
		"buffer":1,
		"byteOffset":0,
		"byteLength":1500,
		"target":34963
	},
	{
		"buffer":1,
		"byteOffset":1500,
		"byteLength":1644,
		"target":34962
	},
	{
		"buffer":2,
		"byteOffset":0,
		"byteLength":648,
		"target":34963
	},
	{
		"buffer":2,
		"byteOffset":648,
		"byteLength":672,
		"target":34962
	},
	{
		"buffer":3,
		"byteOffset":0,
		"byteLength":72,
		"target":34963
	},
	{
		"buffer":3,
		"byteOffset":72,
		"byteLength":96,
		"target":34962
	},
	{
		"buffer":4,
		"byteOffset":0,
		"byteLength":1500,
		"target":34963
	},
	{
		"buffer":4,
		"byteOffset":1500,
		"byteLength":1644,
		"target":34962
	},
	{
		"buffer":5,
		"byteOffset":0,
		"byteLength":648,
		"target":34963
	},
	{
		"buffer":5,
		"byteOffset":648,
		"byteLength":672,
		"target":34962
	},
	{
		"buffer":6,
		"byteOffset":0,
		"byteLength":6912,
		"target":34963
	},
	{
		"buffer":6,
		"byteOffset":6912,
		"byteLength":9216,
		"target":34962
	},
	{
		"buffer":7,
		"byteOffset":0,
		"byteLength":72,
		"target":34963
	},
	{
		"buffer":7,
		"byteOffset":72,
		"byteLength":96,
		"target":34962
	},
	{
		"buffer":8,
		"byteOffset":0,
		"byteLength":72,
		"target":34963
	},
	{
		"buffer":8,
		"byteOffset":72,
		"byteLength":96,
		"target":34962
	},
	{
		"buffer":9,
		"byteOffset":0,
		"byteLength":72,
		"target":34963
	},
	{
		"buffer":9,
		"byteOffset":72,
		"byteLength":96,
		"target":34962
	},
	{
		"buffer":10,
		"byteOffset":0,
		"byteLength":156,
		"target":34963
	},
	{
		"buffer":10,
		"byteOffset":156,
		"byteLength":192,
		"target":34962
	},
	{
		"buffer":11,
		"byteOffset":0,
		"byteLength":12,
		"target":34963
	},
	{
		"buffer":11,
		"byteOffset":12,
		"byteLength":48,
		"target":34962
	},
	{
		"buffer":12,
		"byteOffset":0,
		"byteLength":72,
		"target":34963
	},
	{
		"buffer":12,
		"byteOffset":72,
		"byteLength":96,
		"target":34962
	},
	{
		"buffer":13,
		"byteOffset":0,
		"byteLength":72,
		"target":34963
	},
	{
		"buffer":13,
		"byteOffset":72,
		"byteLength":96,
		"target":34962
	},
	{
		"buffer":14,
		"byteOffset":0,
		"byteLength":156,
		"target":34963
	},
	{
		"buffer":14,
		"byteOffset":156,
		"byteLength":192,
		"target":34962
	},
	{
		"buffer":15,
		"byteOffset":0,
		"byteLength":12,
		"target":34963
	},
	{
		"buffer":15,
		"byteOffset":12,
		"byteLength":48,
		"target":34962
	},
	{
		"buffer":16,
		"byteOffset":0,
		"byteLength":72,
		"target":34963
	},
	{
		"buffer":16,
		"byteOffset":72,
		"byteLength":96,
		"target":34962
	},
	{
		"buffer":17,
		"byteOffset":0,
		"byteLength":72,
		"target":34963
	},
	{
		"buffer":17,
		"byteOffset":72,
		"byteLength":96,
		"target":34962
	},
	{
		"buffer":18,
		"byteOffset":0,
		"byteLength":72,
		"target":34963
	},
	{
		"buffer":18,
		"byteOffset":72,
		"byteLength":96,
		"target":34962
	},
	{
		"buffer":19,
		"byteOffset":0,
		"byteLength":360,
		"target":34963
	},
	{
		"buffer":19,
		"byteOffset":360,
		"byteLength":480,
		"target":34962
	},
	{
		"buffer":20,
		"byteOffset":0,
		"byteLength":360,
		"target":34963
	},
	{
		"buffer":20,
		"byteOffset":360,
		"byteLength":480,
		"target":34962
	}],
	"buffers":[{
		"uri":"data:application/octet-stream;base64,",
		"byteLength":168
	},
	{
		"uri":"data:application/octet-stream;base64,",
		"byteLength":3144
	},
	{
		"uri":"data:application/octet-stream;base64,",
		"byteLength":1320
	},
	{
		"uri":"data:application/octet-stream;base64,",
		"byteLength":168
	},
	{
		"uri":"data:application/octet-stream;base64,",
		"byteLength":3144
	},
	{
		"uri":"data:application/octet-stream;base64,",
		"byteLength":1320
	},
	{
		"uri":"data:application/octet-stream;base64,",
		"byteLength":16128
	},
	{
		"uri":"data:application/octet-stream;base64,",
		"byteLength":168
	},
	{
		"uri":"data:application/octet-stream;base64,",
		"byteLength":168
	},
	{
		"uri":"data:application/octet-stream;base64,",
		"byteLength":168
	},
	{
		"uri":"data:application/octet-stream;base64,",
		"byteLength":348
	},
	{
		"uri":"data:application/octet-stream;base64,",
		"byteLength":60
	},
	{
		"uri":"data:application/octet-stream;base64,",
		"byteLength":168
	},
	{
		"uri":"data:application/octet-stream;base64,",
		"byteLength":168
	},
	{
		"uri":"data:application/octet-stream;base64,",
		"byteLength":348
	},
	{
		"uri":"data:application/octet-stream;base64,",
		"byteLength":60
	},
	{
		"uri":"data:application/octet-stream;base64,",
		"byteLength":168
	},
	{
		"uri":"data:application/octet-stream;base64,",
		"byteLength":168
	},
	{
		"uri":"data:application/octet-stream;base64,",
		"byteLength":168
	},
	{
		"uri":"data:application/octet-stream;base64,",
		"byteLength":840
	},
	{
		"uri":"data:application/octet-stream;base64,",
		"byteLength":840
	}],
	"materials":[{
		"pbrMetallicRoughness":{
			"baseColorFactor":[1.0,
			1.0,
			1.0,
			1.0],
			"metallicFactor":1.0,
			"roughnessFactor":1.0
		},
		"emissiveFactor":[0.0,
		0.0,
		0.0],
		"alphaMode":"OPAQUE",
		"doubleSided":false,
		"name":"Lautsprecher-03"
	},
	{
		"pbrMetallicRoughness":{
			"baseColorFactor":[0.4000000059604645,
			0.4000000059604645,
			0.4000000059604645,
			1.0],
			"metallicFactor":1.0,
			"roughnessFactor":1.0
		},
		"emissiveFactor":[0.0,
		0.0,
		0.0],
		"alphaMode":"OPAQUE",
		"doubleSided":false,
		"name":"Lautsprecher-02"
	},
	{
		"pbrMetallicRoughness":{
			"baseColorFactor":[0.14999999105930329,
			0.14999999105930329,
			0.14999999105930329,
			1.0],
			"metallicFactor":1.0,
			"roughnessFactor":1.0
		},
		"emissiveFactor":[0.0,
		0.0,
		0.0],
		"alphaMode":"OPAQUE",
		"doubleSided":false,
		"name":"Lautsprecher-01"
	},
	{
		"pbrMetallicRoughness":{
			"baseColorFactor":[0.91,
			0.91,
			0.91,
			1.0],
			"metallicFactor":1.0,
			"roughnessFactor":1.0
		},
		"emissiveFactor":[0.0,
		0.0,
		0.0],
		"alphaMode":"OPAQUE",
		"doubleSided":false,
		"name":"Mat.2"
	},
	{
		"pbrMetallicRoughness":{
			"baseColorFactor":[1.0,
			0.8649606299212598,
			0.6141732283464567,
			1.0],
			"metallicFactor":1.0,
			"roughnessFactor":1.0
		},
		"emissiveFactor":[1.0,
		1.0,
		1.0],
		"alphaMode":"OPAQUE",
		"doubleSided":false,
		"name":"Light Bright"
	},
	{
		"pbrMetallicRoughness":{
			"baseColorFactor":[1.0,
			0.8649606299212598,
			0.6141732283464567,
			1.0],
			"metallicFactor":1.0,
			"roughnessFactor":1.0
		},
		"emissiveFactor":[1.0,
		1.0,
		1.0],
		"alphaMode":"OPAQUE",
		"doubleSided":false,
		"name":"Light Bright"
	},
	{
		"pbrMetallicRoughness":{
			"baseColorFactor":[0.9500000000000001,
			0.8075,
			0.9048749999999999,
			1.0],
			"metallicFactor":1.0,
			"roughnessFactor":1.0
		},
		"emissiveFactor":[0.0,
		0.0,
		0.0],
		"alphaMode":"OPAQUE",
		"doubleSided":false,
		"name":"Mat.5"
	},
	{
		"pbrMetallicRoughness":{
			"baseColorFactor":[0.8,
			0.8,
			0.8,
			1.0],
			"metallicFactor":1.0,
			"roughnessFactor":1.0
		},
		"emissiveFactor":[0.0,
		0.0,
		0.0],
		"alphaMode":"OPAQUE",
		"doubleSided":false,
		"name":"Planks"
	},
	{
		"pbrMetallicRoughness":{
			"baseColorFactor":[0.96,
			0.96,
			0.96,
			1.0],
			"metallicFactor":1.0,
			"roughnessFactor":1.0
		},
		"emissiveFactor":[0.0,
		0.0,
		0.0],
		"alphaMode":"OPAQUE",
		"doubleSided":false,
		"name":"Mat.1"
	}]
}