{
	"asset":{
		"version":"2.0",
		"generator":"Created using the official Cinema 4D glTF Exporter 1.000x284978"
	},
	"scenes":[{
		"nodes":[0]
	}],
	"images":[{
		"uri":"data:image/jpeg;base64,"
	},
	{
		"uri":"data:image/jpeg;base64,"
	},
	{
		"uri":"data:image/jpeg;base64,"
	},
	{
		"uri":"data:image/jpeg;base64,"
	},
	{
		"uri":"data:image/jpeg;base64,"
	}],
	"nodes":[{
		"name":"Connect",
		"translation":[0.0,
		0.0,
		0.0],
		"rotation":[-0.5,
		-0.5,
		0.5,
		-0.5],
		"scale":[1.0,
		1.0,
		1.0],
		"children":[1]
	},
	{
		"name":"Monitor.1",
		"children":[2,
		3,
		4,
		5,
		6,
		7,
		8,
		9,
		10,
		11,
		12,
		13,
		14,
		15,
		16,
		17,
		18,
		19,
		20]
	},
	{
		"name":"Monitor.1-Lautsprecher-03",
		"mesh":0
	},
	{
		"name":"Monitor.1-Lautsprecher-02",
		"mesh":1
	},
	{
		"name":"Monitor.1-Lautsprecher-01",
		"mesh":2
	},
	{
		"name":"Monitor.1-Lautsprecher-03",
		"mesh":3
	},
	{
		"name":"Monitor.1-Lautsprecher-02",
		"mesh":4
	},
	{
		"name":"Monitor.1-Lautsprecher-01",
		"mesh":5
	},
	{
		"name":"Monitor.1-Lautsprecher-01",
		"mesh":6
	},
	{
		"name":"Monitor.1-Mat.2",
		"mesh":7
	},
	{
		"name":"Monitor.1-Mat.1",
		"mesh":8
	},
	{
		"name":"Monitor.1-Planks",
		"mesh":9
	},
	{
		"name":"Monitor.1-Mat.5",
		"mesh":10
	},
	{
		"name":"Monitor.1-Light Bright",
		"mesh":11
	},
	{
		"name":"Monitor.1-Lautsprecher-01",
		"mesh":12
	},
	{
		"name":"Monitor.1-Lautsprecher-01",
		"mesh":13
	},
	{
		"name":"Monitor.1-Lautsprecher-01",
		"mesh":14
	},
	{
		"name":"Monitor.1-Light Bright",
		"mesh":15
	},
	{
		"name":"Monitor.1-Lautsprecher-01",
		"mesh":16
	},
	{
		"name":"Monitor.1-Lautsprecher-01",
		"mesh":17
	},
	{
		"name":"Monitor.1-Lautsprecher-01",
		"mesh":18
	}],
	"meshes":[{
		"primitives":[{
			"attributes":{
				"POSITION":1,
				"TEXCOORD_0":2
			},
			"indices":0,
			"material":0
		}],
		"name":"Monitor.1-Lautsprecher-03"
	},
	{
		"primitives":[{
			"attributes":{
				"POSITION":4,
				"TEXCOORD_0":5
			},
			"indices":3,
			"material":1
		}],
		"name":"Monitor.1-Lautsprecher-02"
	},
	{
		"primitives":[{
			"attributes":{
				"POSITION":7,
				"TEXCOORD_0":8
			},
			"indices":6,
			"material":2
		}],
		"name":"Monitor.1-Lautsprecher-01"
	},
	{
		"primitives":[{
			"attributes":{
				"POSITION":10,
				"TEXCOORD_0":11
			},
			"indices":9,
			"material":0
		}],
		"name":"Monitor.1-Lautsprecher-03"
	},
	{
		"primitives":[{
			"attributes":{
				"POSITION":13,
				"TEXCOORD_0":14
			},
			"indices":12,
			"material":1
		}],
		"name":"Monitor.1-Lautsprecher-02"
	},
	{
		"primitives":[{
			"attributes":{
				"POSITION":16,
				"TEXCOORD_0":17
			},
			"indices":15,
			"material":2
		}],
		"name":"Monitor.1-Lautsprecher-01"
	},
	{
		"primitives":[{
			"attributes":{
				"POSITION":19,
				"TEXCOORD_0":20
			},
			"indices":18,
			"material":2
		}],
		"name":"Monitor.1-Lautsprecher-01"
	},
	{
		"primitives":[{
			"attributes":{
				"POSITION":22,
				"TEXCOORD_0":23
			},
			"indices":21,
			"material":3
		}],
		"name":"Monitor.1-Mat.2"
	},
	{
		"primitives":[{
			"attributes":{
				"POSITION":25,
				"TEXCOORD_0":26
			},
			"indices":24,
			"material":4
		}],
		"name":"Monitor.1-Mat.1"
	},
	{
		"primitives":[{
			"attributes":{
				"POSITION":28,
				"TEXCOORD_0":29
			},
			"indices":27,
			"material":5
		}],
		"name":"Monitor.1-Planks"
	},
	{
		"primitives":[{
			"attributes":{
				"POSITION":31,
				"TEXCOORD_0":32
			},
			"indices":30,
			"material":6
		}],
		"name":"Monitor.1-Mat.5"
	},
	{
		"primitives":[{
			"attributes":{
				"POSITION":34,
				"TEXCOORD_0":35
			},
			"indices":33,
			"material":7
		}],
		"name":"Monitor.1-Light Bright"
	},
	{
		"primitives":[{
			"attributes":{
				"POSITION":37,
				"TEXCOORD_0":38
			},
			"indices":36,
			"material":2
		}],
		"name":"Monitor.1-Lautsprecher-01"
	},
	{
		"primitives":[{
			"attributes":{
				"POSITION":40,
				"TEXCOORD_0":41
			},
			"indices":39,
			"material":2
		}],
		"name":"Monitor.1-Lautsprecher-01"
	},
	{
		"primitives":[{
			"attributes":{
				"POSITION":43,
				"TEXCOORD_0":44
			},
			"indices":42,
			"material":2
		}],
		"name":"Monitor.1-Lautsprecher-01"
	},
	{
		"primitives":[{
			"attributes":{
				"POSITION":46,
				"TEXCOORD_0":47
			},
			"indices":45,
			"material":8
		}],
		"name":"Monitor.1-Light Bright"
	},
	{
		"primitives":[{
			"attributes":{
				"POSITION":49,
				"TEXCOORD_0":50
			},
			"indices":48,
			"material":2
		}],
		"name":"Monitor.1-Lautsprecher-01"
	},
	{
		"primitives":[{
			"attributes":{
				"POSITION":52,
				"TEXCOORD_0":53
			},
			"indices":51,
			"material":2
		}],
		"name":"Monitor.1-Lautsprecher-01"
	},
	{
		"primitives":[{
			"attributes":{
				"POSITION":55,
				"TEXCOORD_0":56
			},
			"indices":54,
			"material":2
		}],
		"name":"Monitor.1-Lautsprecher-01"
	}],
	"accessors":[{
		"bufferView":0,
		"type":"SCALAR",
		"componentType":5123,
		"max":[7],
		"count":36,
		"byteOffset":0,
		"min":[0]
	},
	{
		"bufferView":1,
		"type":"VEC3",
		"componentType":5126,
		"max":[51.54767990112305,
		-158.13412475585938,
		-74.06437683105469],
		"count":8,
		"byteOffset":0,
		"min":[49.34047317504883,
		-158.4100341796875,
		-74.61618041992188]
	},
	{
		"bufferView":1,
		"type":"VEC2",
		"componentType":5126,
		"max":[0.0,
		0.0],
		"count":8,
		"byteOffset":12,
		"min":[0.0,
		0.0]
	},
	{
		"bufferView":2,
		"type":"SCALAR",
		"componentType":5123,
		"max":[128],
		"count":702,
		"byteOffset":0,
		"min":[0]
	},
	{
		"bufferView":3,
		"type":"VEC3",
		"componentType":5126,
		"max":[57.61750793457031,
		-157.36160278320313,
		-75.66460418701172],
		"count":129,
		"byteOffset":0,
		"min":[43.27064514160156,
		-159.56881713867188,
		-103.08918762207031]
	},
	{
		"bufferView":3,
		"type":"VEC2",
		"componentType":5126,
		"max":[0.0,
		0.0],
		"count":129,
		"byteOffset":12,
		"min":[0.0,
		0.0]
	},
	{
		"bufferView":4,
		"type":"SCALAR",
		"componentType":5123,
		"max":[45],
		"count":264,
		"byteOffset":0,
		"min":[0]
	},
	{
		"bufferView":5,
		"type":"VEC3",
		"componentType":5126,
		"max":[57.672691345214847,
		-158.4100341796875,
		-72.68487548828125],
		"count":46,
		"byteOffset":0,
		"min":[43.2154655456543,
		-172.75689697265626,
		-104.19279479980469]
	},
	{
		"bufferView":5,
		"type":"VEC2",
		"componentType":5126,
		"max":[0.0,
		0.0],
		"count":46,
		"byteOffset":12,
		"min":[0.0,
		0.0]
	},
	{
		"bufferView":6,
		"type":"SCALAR",
		"componentType":5123,
		"max":[7],
		"count":36,
		"byteOffset":0,
		"min":[0]
	},
	{
		"bufferView":7,
		"type":"VEC3",
		"componentType":5126,
		"max":[-164.36451721191407,
		-158.13412475585938,
		-74.06439208984375],
		"count":8,
		"byteOffset":0,
		"min":[-166.57171630859376,
		-158.41001892089845,
		-74.61619567871094]
	},
	{
		"bufferView":7,
		"type":"VEC2",
		"componentType":5126,
		"max":[0.0,
		0.0],
		"count":8,
		"byteOffset":12,
		"min":[0.0,
		0.0]
	},
	{
		"bufferView":8,
		"type":"SCALAR",
		"componentType":5123,
		"max":[127],
		"count":696,
		"byteOffset":0,
		"min":[0]
	},
	{
		"bufferView":9,
		"type":"VEC3",
		"componentType":5126,
		"max":[-158.29469299316407,
		-157.30642700195313,
		-75.66461944580078],
		"count":128,
		"byteOffset":0,
		"min":[-172.6415557861328,
		-159.56881713867188,
		-103.08920288085938]
	},
	{
		"bufferView":9,
		"type":"VEC2",
		"componentType":5126,
		"max":[0.0,
		0.0],
		"count":128,
		"byteOffset":12,
		"min":[0.0,
		0.0]
	},
	{
		"bufferView":10,
		"type":"SCALAR",
		"componentType":5123,
		"max":[43],
		"count":252,
		"byteOffset":0,
		"min":[0]
	},
	{
		"bufferView":11,
		"type":"VEC3",
		"componentType":5126,
		"max":[-158.239501953125,
		-158.41001892089845,
		-72.68488311767578],
		"count":44,
		"byteOffset":0,
		"min":[-172.6967315673828,
		-172.75689697265626,
		-104.19280242919922]
	},
	{
		"bufferView":11,
		"type":"VEC2",
		"componentType":5126,
		"max":[0.0,
		0.0],
		"count":44,
		"byteOffset":12,
		"min":[0.0,
		0.0]
	},
	{
		"bufferView":12,
		"type":"SCALAR",
		"componentType":5123,
		"max":[19],
		"count":36,
		"byteOffset":0,
		"min":[0]
	},
	{
		"bufferView":13,
		"type":"VEC3",
		"componentType":5126,
		"max":[-25.739072799682618,
		-101.3355484008789,
		-72.44888305664063],
		"count":20,
		"byteOffset":0,
		"min":[-86.35797882080078,
		-128.5337677001953,
		-74.89958953857422]
	},
	{
		"bufferView":13,
		"type":"VEC2",
		"componentType":5126,
		"max":[1.0,
		1.0],
		"count":20,
		"byteOffset":12,
		"min":[0.0,
		0.0]
	},
	{
		"bufferView":14,
		"type":"SCALAR",
		"componentType":5123,
		"max":[1919],
		"count":3456,
		"byteOffset":0,
		"min":[0]
	},
	{
		"bufferView":15,
		"type":"VEC3",
		"componentType":5126,
		"max":[-27.838863372802736,
		-103.16416931152344,
		-72.89087677001953],
		"count":1920,
		"byteOffset":0,
		"min":[-84.30807495117188,
		-126.58953094482422,
		-75.11761474609375]
	},
	{
		"bufferView":15,
		"type":"VEC2",
		"componentType":5126,
		"max":[1.0,
		1.0],
		"count":1920,
		"byteOffset":12,
		"min":[0.0,
		0.0]
	},
	{
		"bufferView":16,
		"type":"SCALAR",
		"componentType":5123,
		"max":[199],
		"count":360,
		"byteOffset":0,
		"min":[0]
	},
	{
		"bufferView":17,
		"type":"VEC3",
		"componentType":5126,
		"max":[68.39684295654297,
		63.485328674316409,
		-6.4484543800354],
		"count":200,
		"byteOffset":0,
		"min":[-175.1660919189453,
		-179.90353393554688,
		-72.62159729003906]
	},
	{
		"bufferView":17,
		"type":"VEC2",
		"componentType":5126,
		"max":[1.0,
		1.0],
		"count":200,
		"byteOffset":12,
		"min":[0.0,
		0.0]
	},
	{
		"bufferView":18,
		"type":"SCALAR",
		"componentType":5123,
		"max":[19],
		"count":36,
		"byteOffset":0,
		"min":[0]
	},
	{
		"bufferView":19,
		"type":"VEC3",
		"componentType":5126,
		"max":[201.4044189453125,
		201.4044189453125,
		6.404416561126709],
		"count":20,
		"byteOffset":0,
		"min":[-201.4044189453125,
		-201.4044189453125,
		-6.404416561126709]
	},
	{
		"bufferView":19,
		"type":"VEC2",
		"componentType":5126,
		"max":[4.869565010070801,
		2.941176414489746],
		"count":20,
		"byteOffset":12,
		"min":[0.52173912525177,
		0.0]
	},
	{
		"bufferView":20,
		"type":"SCALAR",
		"componentType":5123,
		"max":[39],
		"count":72,
		"byteOffset":0,
		"min":[0]
	},
	{
		"bufferView":21,
		"type":"VEC3",
		"componentType":5126,
		"max":[198.10382080078126,
		199.4044189453125,
		-0.5070856213569641],
		"count":40,
		"byteOffset":0,
		"min":[-200.89254760742188,
		-200.87921142578126,
		-256.31591796875]
	},
	{
		"bufferView":21,
		"type":"VEC2",
		"componentType":5126,
		"max":[1.0,
		1.0],
		"count":40,
		"byteOffset":12,
		"min":[0.0,
		0.0]
	},
	{
		"bufferView":22,
		"type":"SCALAR",
		"componentType":5123,
		"max":[3],
		"count":6,
		"byteOffset":0,
		"min":[0]
	},
	{
		"bufferView":23,
		"type":"VEC3",
		"componentType":5126,
		"max":[41.996055603027347,
		-143.84066772460938,
		-85.2705078125],
		"count":4,
		"byteOffset":0,
		"min":[-36.69703674316406,
		-163.56936645507813,
		-137.7427215576172]
	},
	{
		"bufferView":23,
		"type":"VEC2",
		"componentType":5126,
		"max":[1.0063109397888184,
		0.99578458070755],
		"count":4,
		"byteOffset":12,
		"min":[0.00421549566090107,
		-0.006310820579528809]
	},
	{
		"bufferView":24,
		"type":"SCALAR",
		"componentType":5123,
		"max":[27],
		"count":78,
		"byteOffset":0,
		"min":[0]
	},
	{
		"bufferView":25,
		"type":"VEC3",
		"componentType":5126,
		"max":[44.31482696533203,
		-142.38742065429688,
		-83.08499908447266],
		"count":28,
		"byteOffset":0,
		"min":[-38.63328170776367,
		-167.8275909423828,
		-139.42906188964845]
	},
	{
		"bufferView":25,
		"type":"VEC2",
		"componentType":5126,
		"max":[1.0,
		1.0],
		"count":28,
		"byteOffset":12,
		"min":[0.0,
		0.0]
	},
	{
		"bufferView":26,
		"type":"SCALAR",
		"componentType":5123,
		"max":[19],
		"count":36,
		"byteOffset":0,
		"min":[0]
	},
	{
		"bufferView":27,
		"type":"VEC3",
		"componentType":5126,
		"max":[21.737611770629884,
		-138.27833557128907,
		-72.70679473876953],
		"count":20,
		"byteOffset":0,
		"min":[-17.192415237426759,
		-171.20994567871095,
		-74.67037200927735]
	},
	{
		"bufferView":27,
		"type":"VEC2",
		"componentType":5126,
		"max":[1.0,
		1.0],
		"count":20,
		"byteOffset":12,
		"min":[0.0,
		0.0]
	},
	{
		"bufferView":28,
		"type":"SCALAR",
		"componentType":5123,
		"max":[19],
		"count":36,
		"byteOffset":0,
		"min":[0]
	},
	{
		"bufferView":29,
		"type":"VEC3",
		"componentType":5126,
		"max":[10.64775276184082,
		-156.79043579101563,
		-74.41410064697266],
		"count":20,
		"byteOffset":0,
		"min":[-4.768172264099121,
		-162.48251342773438,
		-115.6986083984375]
	},
	{
		"bufferView":29,
		"type":"VEC2",
		"componentType":5126,
		"max":[1.0,
		1.0],
		"count":20,
		"byteOffset":12,
		"min":[0.0,
		0.0]
	},
	{
		"bufferView":30,
		"type":"SCALAR",
		"componentType":5123,
		"max":[3],
		"count":6,
		"byteOffset":0,
		"min":[0]
	},
	{
		"bufferView":31,
		"type":"VEC3",
		"componentType":5126,
		"max":[-45.99087142944336,
		-121.88997650146485,
		-85.2705078125],
		"count":4,
		"byteOffset":0,
		"min":[-120.72193145751953,
		-163.35015869140626,
		-137.7427215576172]
	},
	{
		"bufferView":31,
		"type":"VEC2",
		"componentType":5126,
		"max":[1.0063109397888184,
		0.99578458070755],
		"count":4,
		"byteOffset":12,
		"min":[0.00421549566090107,
		-0.006310820579528809]
	},
	{
		"bufferView":32,
		"type":"SCALAR",
		"componentType":5123,
		"max":[27],
		"count":78,
		"byteOffset":0,
		"min":[0]
	},
	{
		"bufferView":33,
		"type":"VEC3",
		"componentType":5126,
		"max":[-43.8538818359375,
		-120.02552032470703,
		-83.08499908447266],
		"count":28,
		"byteOffset":0,
		"min":[-124.05697631835938,
		-167.77955627441407,
		-139.42906188964845]
	},
	{
		"bufferView":33,
		"type":"VEC2",
		"componentType":5126,
		"max":[1.0,
		1.0],
		"count":28,
		"byteOffset":12,
		"min":[0.0,
		0.0]
	},
	{
		"bufferView":34,
		"type":"SCALAR",
		"componentType":5123,
		"max":[19],
		"count":36,
		"byteOffset":0,
		"min":[0]
	},
	{
		"bufferView":35,
		"type":"VEC3",
		"componentType":5126,
		"max":[-62.1810417175293,
		-122.926513671875,
		-72.70679473876953],
		"count":20,
		"byteOffset":0,
		"min":[-106.291259765625,
		-163.652099609375,
		-74.67037200927735]
	},
	{
		"bufferView":35,
		"type":"VEC2",
		"componentType":5126,
		"max":[1.0,
		1.0],
		"count":20,
		"byteOffset":12,
		"min":[0.0,
		0.0]
	},
	{
		"bufferView":36,
		"type":"SCALAR",
		"componentType":5123,
		"max":[19],
		"count":36,
		"byteOffset":0,
		"min":[0]
	},
	{
		"bufferView":37,
		"type":"VEC3",
		"componentType":5126,
		"max":[-78.7243423461914,
		-142.9049072265625,
		-74.41410064697266],
		"count":20,
		"byteOffset":0,
		"min":[-93.92716979980469,
		-152.6210174560547,
		-115.6986083984375]
	},
	{
		"bufferView":37,
		"type":"VEC2",
		"componentType":5126,
		"max":[1.0,
		1.0],
		"count":20,
		"byteOffset":12,
		"min":[0.0,
		0.0]
	}],
	"samplers":[{
		"magFilter":9729,
		"minFilter":9729,
		"wrapS":10497,
		"wrapT":10497
	},
	{
		"magFilter":9729,
		"minFilter":9729,
		"wrapS":10497,
		"wrapT":10497
	},
	{
		"magFilter":9729,
		"minFilter":9729,
		"wrapS":10497,
		"wrapT":10497
	},
	{
		"magFilter":9729,
		"minFilter":9729,
		"wrapS":10497,
		"wrapT":10497
	},
	{
		"magFilter":9729,
		"minFilter":9729,
		"wrapS":10497,
		"wrapT":10497
	},
	{
		"magFilter":9729,
		"minFilter":9729,
		"wrapS":10497,
		"wrapT":10497
	}],
	"bufferViews":[{
		"buffer":0,
		"byteOffset":0,
		"byteLength":72,
		"target":34963
	},
	{
		"buffer":0,
		"byteOffset":72,
		"byteLength":160,
		"target":34962,
		"byteStride":20
	},
	{
		"buffer":1,
		"byteOffset":0,
		"byteLength":1404,
		"target":34963
	},
	{
		"buffer":1,
		"byteOffset":1404,
		"byteLength":2580,
		"target":34962,
		"byteStride":20
	},
	{
		"buffer":2,
		"byteOffset":0,
		"byteLength":528,
		"target":34963
	},
	{
		"buffer":2,
		"byteOffset":528,
		"byteLength":920,
		"target":34962,
		"byteStride":20
	},
	{
		"buffer":3,
		"byteOffset":0,
		"byteLength":72,
		"target":34963
	},
	{
		"buffer":3,
		"byteOffset":72,
		"byteLength":160,
		"target":34962,
		"byteStride":20
	},
	{
		"buffer":4,
		"byteOffset":0,
		"byteLength":1392,
		"target":34963
	},
	{
		"buffer":4,
		"byteOffset":1392,
		"byteLength":2560,
		"target":34962,
		"byteStride":20
	},
	{
		"buffer":5,
		"byteOffset":0,
		"byteLength":504,
		"target":34963
	},
	{
		"buffer":5,
		"byteOffset":504,
		"byteLength":880,
		"target":34962,
		"byteStride":20
	},
	{
		"buffer":6,
		"byteOffset":0,
		"byteLength":72,
		"target":34963
	},
	{
		"buffer":6,
		"byteOffset":72,
		"byteLength":400,
		"target":34962,
		"byteStride":20
	},
	{
		"buffer":7,
		"byteOffset":0,
		"byteLength":6912,
		"target":34963
	},
	{
		"buffer":7,
		"byteOffset":6912,
		"byteLength":38400,
		"target":34962,
		"byteStride":20
	},
	{
		"buffer":8,
		"byteOffset":0,
		"byteLength":720,
		"target":34963
	},
	{
		"buffer":8,
		"byteOffset":720,
		"byteLength":4000,
		"target":34962,
		"byteStride":20
	},
	{
		"buffer":9,
		"byteOffset":0,
		"byteLength":72,
		"target":34963
	},
	{
		"buffer":9,
		"byteOffset":72,
		"byteLength":400,
		"target":34962,
		"byteStride":20
	},
	{
		"buffer":10,
		"byteOffset":0,
		"byteLength":144,
		"target":34963
	},
	{
		"buffer":10,
		"byteOffset":144,
		"byteLength":800,
		"target":34962,
		"byteStride":20
	},
	{
		"buffer":11,
		"byteOffset":0,
		"byteLength":12,
		"target":34963
	},
	{
		"buffer":11,
		"byteOffset":12,
		"byteLength":80,
		"target":34962,
		"byteStride":20
	},
	{
		"buffer":12,
		"byteOffset":0,
		"byteLength":156,
		"target":34963
	},
	{
		"buffer":12,
		"byteOffset":156,
		"byteLength":560,
		"target":34962,
		"byteStride":20
	},
	{
		"buffer":13,
		"byteOffset":0,
		"byteLength":72,
		"target":34963
	},
	{
		"buffer":13,
		"byteOffset":72,
		"byteLength":400,
		"target":34962,
		"byteStride":20
	},
	{
		"buffer":14,
		"byteOffset":0,
		"byteLength":72,
		"target":34963
	},
	{
		"buffer":14,
		"byteOffset":72,
		"byteLength":400,
		"target":34962,
		"byteStride":20
	},
	{
		"buffer":15,
		"byteOffset":0,
		"byteLength":12,
		"target":34963
	},
	{
		"buffer":15,
		"byteOffset":12,
		"byteLength":80,
		"target":34962,
		"byteStride":20
	},
	{
		"buffer":16,
		"byteOffset":0,
		"byteLength":156,
		"target":34963
	},
	{
		"buffer":16,
		"byteOffset":156,
		"byteLength":560,
		"target":34962,
		"byteStride":20
	},
	{
		"buffer":17,
		"byteOffset":0,
		"byteLength":72,
		"target":34963
	},
	{
		"buffer":17,
		"byteOffset":72,
		"byteLength":400,
		"target":34962,
		"byteStride":20
	},
	{
		"buffer":18,
		"byteOffset":0,
		"byteLength":72,
		"target":34963
	},
	{
		"buffer":18,
		"byteOffset":72,
		"byteLength":400,
		"target":34962,
		"byteStride":20
	}],
	"buffers":[{
		"uri":"data:application/octet-stream;base64,",
		"byteLength":232
	},
	{
		"uri":"data:application/octet-stream;base64,",
		"byteLength":3984
	},
	{
		"uri":"data:application/octet-stream;base64,",
		"byteLength":1448
	},
	{
		"uri":"data:application/octet-stream;base64,",
		"byteLength":232
	},
	{
		"uri":"data:application/octet-stream;base64,",
		"byteLength":3952
	},
	{
		"uri":"data:application/octet-stream;base64,",
		"byteLength":1384
	},
	{
		"uri":"data:application/octet-stream;base64,",
		"byteLength":472
	},
	{
		"uri":"data:application/octet-stream;base64,",
		"byteLength":45312
	},
	{
		"uri":"data:application/octet-stream;base64,",
		"byteLength":4720
	},
	{
		"uri":"data:application/octet-stream;base64,",
		"byteLength":472
	},
	{
		"uri":"data:application/octet-stream;base64,",
		"byteLength":944
	},
	{
		"uri":"data:application/octet-stream;base64,",
		"byteLength":92
	},
	{
		"uri":"data:application/octet-stream;base64,",
		"byteLength":716
	},
	{
		"uri":"data:application/octet-stream;base64,",
		"byteLength":472
	},
	{
		"uri":"data:application/octet-stream;base64,",
		"byteLength":472
	},
	{
		"uri":"data:application/octet-stream;base64,",
		"byteLength":92
	},
	{
		"uri":"data:application/octet-stream;base64,",
		"byteLength":716
	},
	{
		"uri":"data:application/octet-stream;base64,",
		"byteLength":472
	},
	{
		"uri":"data:application/octet-stream;base64,",
		"byteLength":472
	}],
	"textures":[{
		"sampler":0,
		"source":0
	},
	{
		"sampler":1,
		"source":1
	},
	{
		"sampler":2,
		"source":2
	},
	{
		"sampler":3,
		"source":3
	},
	{
		"sampler":4,
		"source":4
	},
	{
		"sampler":5,
		"source":3
	}],
	"materials":[{
		"pbrMetallicRoughness":{
			"baseColorFactor":[1.0,
			1.0,
			1.0,
			1.0],
			"metallicFactor":1.0,
			"roughnessFactor":1.0
		},
		"emissiveFactor":[0.0,
		0.0,
		0.0],
		"alphaMode":"OPAQUE",
		"doubleSided":true,
		"name":"Lautsprecher-03"
	},
	{
		"pbrMetallicRoughness":{
			"baseColorFactor":[0.4000000059604645,
			0.4000000059604645,
			0.4000000059604645,
			1.0],
			"metallicFactor":1.0,
			"roughnessFactor":1.0
		},
		"emissiveFactor":[0.0,
		0.0,
		0.0],
		"alphaMode":"OPAQUE",
		"doubleSided":true,
		"name":"Lautsprecher-02"
	},
	{
		"pbrMetallicRoughness":{
			"baseColorFactor":[0.14999999105930329,
			0.14999999105930329,
			0.14999999105930329,
			1.0],
			"metallicFactor":1.0,
			"roughnessFactor":1.0
		},
		"emissiveFactor":[0.0,
		0.0,
		0.0],
		"alphaMode":"OPAQUE",
		"doubleSided":true,
		"name":"Lautsprecher-01"
	},
	{
		"pbrMetallicRoughness":{
			"baseColorFactor":[0.91,
			0.91,
			0.91,
			1.0],
			"metallicFactor":1.0,
			"roughnessFactor":1.0
		},
		"emissiveFactor":[0.0,
		0.0,
		0.0],
		"alphaMode":"OPAQUE",
		"doubleSided":true,
		"name":"Mat.2"
	},
	{
		"pbrMetallicRoughness":{
			"baseColorFactor":[0.96,
			0.96,
			0.96,
			1.0],
			"metallicFactor":1.0,
			"roughnessFactor":1.0
		},
		"emissiveFactor":[0.0,
		0.0,
		0.0],
		"alphaMode":"OPAQUE",
		"doubleSided":true,
		"name":"Mat.1"
	},
	{
		"pbrMetallicRoughness":{
			"baseColorTexture":{
				"index":0
			},
			"baseColorFactor":[0.8,
			0.8,
			0.8,
			1.0],
			"metallicFactor":1.0,
			"roughnessFactor":1.0
		},
		"occlusionTexture":{
			"index":1,
			"strength":0.17
		},
		"emissiveFactor":[0.0,
		0.0,
		0.0],
		"alphaMode":"OPAQUE",
		"doubleSided":true,
		"name":"Planks"
	},
	{
		"pbrMetallicRoughness":{
			"baseColorFactor":[0.9500000000000001,
			0.8075,
			0.9048749999999999,
			1.0],
			"metallicFactor":1.0,
			"roughnessFactor":1.0
		},
		"emissiveFactor":[0.0,
		0.0,
		0.0],
		"alphaMode":"OPAQUE",
		"doubleSided":true,
		"name":"Mat.5"
	},
	{
		"pbrMetallicRoughness":{
			"baseColorTexture":{
				"index":2
			},
			"baseColorFactor":[1.0,
			0.8649606299212598,
			0.6141732283464567,
			1.0],
			"metallicFactor":1.0,
			"roughnessFactor":1.0
		},
		"emissiveTexture":{
			"index":3
		},
		"emissiveFactor":[1.0,
		1.0,
		1.0],
		"alphaMode":"OPAQUE",
		"doubleSided":true,
		"name":"Light Bright"
	},
	{
		"pbrMetallicRoughness":{
			"baseColorTexture":{
				"index":4
			},
			"baseColorFactor":[1.0,
			0.8649606299212598,
			0.6141732283464567,
			1.0],
			"metallicFactor":1.0,
			"roughnessFactor":1.0
		},
		"emissiveTexture":{
			"index":5
		},
		"emissiveFactor":[1.0,
		1.0,
		1.0],
		"alphaMode":"OPAQUE",
		"doubleSided":true,
		"name":"Light Bright"
	}]
}